<svg width="24" height="24" viewBox="0 0 24 24" fill="none" xmlns="http://www.w3.org/2000/svg">
<path fill-rule="evenodd" clip-rule="evenodd" d="M12.35 2.5C12.35 2.3067 12.1933 2.15 12 2.15C11.8067 2.15 11.65 2.3067 11.65 2.5V8.64866H5.5C5.3067 8.64866 5.15 8.80536 5.15 8.99866C5.15 9.19196 5.3067 9.34866 5.5 9.34866H11.65L11.65 21.2176C11.65 21.4109 11.8067 21.5676 12 21.5676C12.1933 21.5676 12.35 21.4109 12.35 21.2176L12.35 9.34866H18.4996C18.6929 9.34866 18.8496 9.19196 18.8496 8.99866C18.8496 8.80536 18.6929 8.64866 18.4996 8.64866H12.35V2.5Z" fill="#000"/>
</svg>
