<svg width="25" height="25" viewBox="0 0 25 25" fill="none" xmlns="http://www.w3.org/2000/svg">
<path d="M9.35 14.74V14.558L9.20103 14.4535C7.47924 13.2454 6.35 11.2598 6.35 9C6.35 7.23631 7.05062 5.54486 8.29774 4.29774C9.54486 3.05062 11.2363 2.35 13 2.35C14.7637 2.35 16.4551 3.05062 17.7023 4.29774C18.9494 5.54486 19.65 7.23631 19.65 9C19.65 11.2598 18.5208 13.2454 16.799 14.4535L16.65 14.558V14.74V17C16.65 17.1724 16.5815 17.3377 16.4596 17.4596C16.3377 17.5815 16.1724 17.65 16 17.65H10C9.82761 17.65 9.66228 17.5815 9.54038 17.4596C9.41848 17.3377 9.35 17.1724 9.35 17V14.74ZM10.5404 21.4596C10.4185 21.3377 10.35 21.1724 10.35 21V20.35H15.65V21C15.65 21.1724 15.5815 21.3377 15.4596 21.4596C15.3377 21.5815 15.1724 21.65 15 21.65H11C10.8276 21.65 10.6623 21.5815 10.5404 21.4596Z" stroke="#000" stroke-width="0.7"/>
<path d="M11.5 5C10.5 5 9 6.5 9 7.5" stroke="#000" stroke-width="0.6"/>
</svg>
